<svg width="1152" height="960" viewBox="0 0 1152 960" fill="none" xmlns="http://www.w3.org/2000/svg">
<path d="M8 0.5H1144C1148.14 0.5 1151.5 3.85786 1151.5 8V952C1151.5 956.142 1148.14 959.5 1144 959.5H8C3.85787 959.5 0.5 956.142 0.5 952V8C0.5 3.85787 3.85786 0.5 8 0.5Z" fill="white"/>
<path d="M8 0.5H1144C1148.14 0.5 1151.5 3.85786 1151.5 8V952C1151.5 956.142 1148.14 959.5 1144 959.5H8C3.85787 959.5 0.5 956.142 0.5 952V8C0.5 3.85787 3.85786 0.5 8 0.5Z" stroke="#8D8D8D"/>
<path d="M1 7.99999C1 4.13399 4.13401 1 8 1H1144C1147.87 1 1151 4.13401 1151 8V952C1151 955.866 1147.87 959 1144 959H7.99999C4.13399 959 1 955.866 1 952V7.99999Z" fill="white"/>
<g clip-path="url(#clip0_571_10611)">
<path d="M61.18 29H56.742V27.516H58.03V20.712H56.742V19.228H61.18V20.712H59.878V27.516H61.18V29ZM63.2279 29V19.228H67.7499C69.3599 19.228 70.3399 20.222 70.3399 21.734C70.3399 23.218 69.4859 23.778 68.5899 23.834V23.918C69.4439 23.932 70.7039 24.534 70.7039 26.2C70.7039 27.768 69.6259 29 68.1839 29H63.2279ZM65.0759 24.814V27.432H67.6519C68.3519 27.432 68.7719 27.054 68.7719 26.368V25.892C68.7719 25.206 68.3519 24.814 67.6519 24.814H65.0759ZM65.0759 20.796V23.302H67.3579C68.0299 23.302 68.4219 22.91 68.4219 22.266V21.832C68.4219 21.174 68.0299 20.796 67.3579 20.796H65.0759ZM72.6711 29V19.228H74.7571L77.2631 24.002H77.3191L79.7971 19.228H81.7991V29H80.0491V21.986H79.9931L79.2371 23.54L77.2351 27.236L75.2331 23.54L74.4771 21.986H74.4211V29H72.6711ZM91.5234 29.168C88.9474 29.168 87.3094 27.474 87.3094 24.184C87.3094 20.894 88.9474 19.06 91.5234 19.06C93.2734 19.06 94.4074 19.802 95.0934 21.314L93.5114 22.154C93.2314 21.286 92.6154 20.698 91.5234 20.698C90.1514 20.698 89.2694 21.692 89.2694 23.358V24.898C89.2694 26.578 90.1514 27.53 91.5234 27.53C92.6294 27.53 93.3154 26.858 93.6374 25.976L95.1354 26.858C94.4354 28.314 93.2734 29.168 91.5234 29.168ZM99.5178 29H98.5518C97.3338 29 96.7598 28.356 96.7598 27.236V18.64H98.5518V27.572H99.5178V29ZM103.933 29.168C101.847 29.168 100.545 27.684 100.545 25.332C100.545 22.994 101.847 21.524 103.933 21.524C106.033 21.524 107.335 22.994 107.335 25.332C107.335 27.684 106.033 29.168 103.933 29.168ZM103.933 27.726C104.871 27.726 105.459 27.124 105.459 26.018V24.66C105.459 23.568 104.871 22.966 103.933 22.966C103.009 22.966 102.421 23.568 102.421 24.66V26.018C102.421 27.124 103.009 27.726 103.933 27.726ZM113.452 29V27.782H113.382C113.13 28.51 112.542 29.168 111.338 29.168C109.84 29.168 109 28.132 109 26.312V21.692H110.792V26.13C110.792 27.138 111.17 27.684 112.024 27.684C112.738 27.684 113.452 27.306 113.452 26.522V21.692H115.244V29H113.452ZM122.01 29V27.782H121.94C121.674 28.608 120.89 29.168 119.924 29.168C118.09 29.168 117.068 27.782 117.068 25.332C117.068 22.896 118.09 21.524 119.924 21.524C120.89 21.524 121.688 22.056 121.94 22.896H122.01V18.64H123.802V29H122.01ZM120.498 27.684C121.352 27.684 122.01 27.25 122.01 26.494V24.17C122.01 23.456 121.352 22.994 120.498 22.994C119.574 22.994 118.944 23.68 118.944 24.716V25.976C118.944 27.012 119.574 27.684 120.498 27.684Z" fill="black"/>
<rect width="24" height="24" transform="translate(16 12)" fill="white" fill-opacity="0.01" style="mix-blend-mode:multiply"/>
<path d="M28.0003 17.25C28.3806 17.2499 28.7599 17.2876 29.1328 17.3625C30.311 17.5882 31.3945 18.1618 32.2435 19.0094C33.0924 19.857 33.6678 20.9396 33.8953 22.1175L34.0903 23.13L35.1028 23.31C36.1254 23.4859 37.0442 24.0407 37.676 24.8639C38.3077 25.6871 38.606 26.7181 38.5114 27.7515C38.4168 28.7848 37.9362 29.7446 37.1654 30.4393C36.3946 31.134 35.3904 31.5128 34.3528 31.5H21.6253C20.5877 31.5128 19.5834 31.134 18.8126 30.4393C18.0419 29.7446 17.5613 28.7848 17.4666 27.7515C17.372 26.7181 17.6703 25.6871 18.3021 24.8639C18.9338 24.0407 19.8526 23.4859 20.8753 23.31L21.8803 23.13L22.0753 22.1175C22.3396 20.7422 23.0766 19.5027 24.1588 18.6138C25.2409 17.7248 26.5998 17.2423 28.0003 17.25ZM28.0003 15.75C26.2547 15.7486 24.5634 16.356 23.2176 17.4677C21.8718 18.5793 20.9559 20.1256 20.6278 21.84C19.2465 22.0901 18.0087 22.8476 17.1574 23.9637C16.3061 25.0798 15.9029 26.4738 16.0269 27.8721C16.1509 29.2703 16.7933 30.5716 17.8277 31.5204C18.8622 32.4692 20.2141 32.997 21.6178 33H34.3678C35.7715 32.997 37.1233 32.4692 38.1578 31.5204C39.1923 30.5716 39.8346 29.2703 39.9586 27.8721C40.0827 26.4738 39.6794 25.0798 38.8282 23.9637C37.9769 22.8476 36.739 22.0901 35.3578 21.84C35.0753 20.3654 34.3567 19.0095 33.295 17.9478C32.2333 16.8861 30.8774 16.1675 29.4028 15.885C28.9404 15.7972 28.4709 15.7521 28.0003 15.75Z" fill="black"/>
</g>
<rect x="48.5" y="96.5" width="1055" height="383" fill="white" fill-opacity="0.01" style="mix-blend-mode:multiply"/>
<rect x="48.5" y="96.5" width="1055" height="383" stroke="#0F62FE"/>
<rect x="49" y="97" width="1054" height="382" fill="white"/>
<rect x="49" y="97" width="1054" height="382" fill="#EDF5FF"/>
<g clip-path="url(#clip1_571_10611)">
<path d="M106.996 121.234V125H105.148V115.228H109.558C111.336 115.228 112.442 116.404 112.442 118.252C112.442 119.596 111.826 120.618 110.622 121.024L112.624 125H110.566L108.746 121.234H106.996ZM106.996 119.68H109.376C110.09 119.68 110.524 119.288 110.524 118.574V117.93C110.524 117.216 110.09 116.838 109.376 116.838H106.996V119.68ZM117.242 125.168C115.086 125.168 113.798 123.67 113.798 121.332C113.798 119.022 115.044 117.524 117.186 117.524C119.468 117.524 120.518 119.204 120.518 121.206V121.794H115.66V121.976C115.66 123.026 116.262 123.74 117.438 123.74C118.32 123.74 118.852 123.32 119.3 122.746L120.266 123.824C119.664 124.65 118.6 125.168 117.242 125.168ZM117.214 118.868C116.276 118.868 115.66 119.568 115.66 120.576V120.688H118.656V120.562C118.656 119.554 118.138 118.868 117.214 118.868ZM128.848 125.616C128.848 127.142 127.812 127.968 125.012 127.968C122.548 127.968 121.61 127.324 121.61 126.246C121.61 125.434 122.1 124.972 122.912 124.846V124.692C122.31 124.538 121.974 124.062 121.974 123.474C121.974 122.718 122.618 122.34 123.318 122.186V122.13C122.436 121.724 121.988 120.968 121.988 120.002C121.988 118.518 123.038 117.524 125.012 117.524C125.46 117.524 125.922 117.58 126.286 117.706V117.468C126.286 116.754 126.65 116.404 127.322 116.404H128.456V117.776H126.902V117.972C127.658 118.392 128.036 119.106 128.036 120.002C128.036 121.472 127 122.452 125.012 122.452C124.592 122.452 124.214 122.41 123.892 122.326C123.612 122.452 123.374 122.662 123.374 122.984C123.374 123.348 123.682 123.53 124.326 123.53H126.286C128.078 123.53 128.848 124.3 128.848 125.616ZM127.168 125.826C127.168 125.364 126.832 125.084 125.922 125.084H123.43C123.164 125.28 123.052 125.546 123.052 125.84C123.052 126.4 123.472 126.736 124.592 126.736H125.488C126.65 126.736 127.168 126.442 127.168 125.826ZM125.012 121.234C125.866 121.234 126.328 120.842 126.328 120.114V119.876C126.328 119.134 125.866 118.756 125.012 118.756C124.158 118.756 123.696 119.134 123.696 119.876V120.114C123.696 120.842 124.158 121.234 125.012 121.234ZM130.939 116.628C130.197 116.628 129.889 116.25 129.889 115.732V115.452C129.889 114.934 130.197 114.556 130.939 114.556C131.667 114.556 131.989 114.934 131.989 115.452V115.732C131.989 116.25 131.667 116.628 130.939 116.628ZM130.043 125V117.692H131.835V125H130.043ZM136.97 125.168C134.884 125.168 133.582 123.684 133.582 121.332C133.582 118.994 134.884 117.524 136.97 117.524C139.07 117.524 140.372 118.994 140.372 121.332C140.372 123.684 139.07 125.168 136.97 125.168ZM136.97 123.726C137.908 123.726 138.496 123.124 138.496 122.018V120.66C138.496 119.568 137.908 118.966 136.97 118.966C136.046 118.966 135.458 119.568 135.458 120.66V122.018C135.458 123.124 136.046 123.726 136.97 123.726ZM143.913 125H142.121V117.692H143.913V118.91H143.983C144.277 118.126 144.893 117.524 146.027 117.524C147.525 117.524 148.365 118.56 148.365 120.38V125H146.573V120.562C146.573 119.526 146.223 118.994 145.369 118.994C144.627 118.994 143.913 119.386 143.913 120.17V125Z" fill="black"/>
<rect width="24" height="24" transform="translate(64 108)" fill="white" fill-opacity="0.01" style="mix-blend-mode:multiply"/>
<path d="M76 121.5C75.2583 121.5 74.5333 121.28 73.9166 120.868C73.2999 120.456 72.8193 119.87 72.5355 119.185C72.2516 118.5 72.1774 117.746 72.3221 117.018C72.4668 116.291 72.8239 115.623 73.3484 115.098C73.8728 114.574 74.541 114.217 75.2684 114.072C75.9958 113.927 76.7498 114.002 77.4351 114.285C78.1203 114.569 78.706 115.05 79.118 115.667C79.5301 116.283 79.75 117.008 79.75 117.75C79.7489 118.744 79.3534 119.697 78.6504 120.4C77.9474 121.103 76.9942 121.499 76 121.5ZM76 115.5C75.555 115.5 75.12 115.632 74.75 115.879C74.38 116.126 74.0916 116.478 73.9213 116.889C73.751 117.3 73.7064 117.752 73.7932 118.189C73.8801 118.625 74.0943 119.026 74.409 119.341C74.7237 119.656 75.1246 119.87 75.5611 119.957C75.9975 120.044 76.4499 119.999 76.861 119.829C77.2722 119.658 77.6236 119.37 77.8708 119C78.118 118.63 78.25 118.195 78.25 117.75C78.2494 117.153 78.0121 116.582 77.5903 116.16C77.1685 115.738 76.5965 115.501 76 115.5Z" fill="#161616"/>
<path d="M76 130.5L69.6734 123.038C69.6375 122.996 69.4122 122.7 69.4122 122.7C68.3314 121.276 67.7475 119.537 67.75 117.75C67.75 115.562 68.6192 113.464 70.1664 111.916C71.7136 110.369 73.812 109.5 76 109.5C78.188 109.5 80.2865 110.369 81.8336 111.916C83.3808 113.464 84.25 115.562 84.25 117.75C84.2527 119.537 83.6692 121.275 82.5889 122.698L82.5878 122.7C82.5878 122.7 82.3628 122.996 82.3293 123.035L76 130.5ZM70.6094 121.796C70.6094 121.796 70.7844 122.027 70.8243 122.077L76 128.181L81.1825 122.068C81.2154 122.027 81.3916 121.794 81.3916 121.794C82.2746 120.631 82.7517 119.21 82.75 117.75C82.75 115.96 82.0388 114.243 80.773 112.977C79.5071 111.711 77.7902 111 76 111C74.2098 111 72.4929 111.711 71.227 112.977C69.9612 114.243 69.25 115.96 69.25 117.75C69.2483 119.211 69.7259 120.632 70.6094 121.796Z" fill="#161616"/>
<line x1="50" y1="96" x2="50" y2="144" stroke="#0F62FE" stroke-width="4"/>
</g>
<rect x="288.5" y="168.5" width="495" height="287" fill="#8D8D8D" style="mix-blend-mode:multiply"/>
<rect x="288.5" y="168.5" width="495" height="287" stroke="#8D8D8D"/>
<rect x="289" y="169" width="494" height="286" fill="white"/>
<rect x="289" y="169" width="494" height="286" fill="#EDF5FF"/>
<g clip-path="url(#clip2_571_10611)">
<path d="M349.18 197H344.742V195.516H346.03V188.712H344.742V187.228H349.18V188.712H347.878V195.516H349.18V197ZM352.908 197H351.116V189.692H352.908V190.91H352.978C353.272 190.126 353.888 189.524 355.022 189.524C356.52 189.524 357.36 190.56 357.36 192.38V197H355.568V192.562C355.568 191.526 355.218 190.994 354.364 190.994C353.622 190.994 352.908 191.386 352.908 192.17V197ZM363.286 193.626H359.282V191.848H363.286V193.626ZM368.176 197.168C366.51 197.168 365.362 196.51 364.536 195.544L365.782 194.34C366.454 195.124 367.28 195.544 368.288 195.544C369.422 195.544 370.01 194.998 370.01 194.172C370.01 193.514 369.702 193.108 368.68 192.926L367.756 192.786C365.782 192.478 364.83 191.54 364.83 189.944C364.83 188.194 366.188 187.06 368.372 187.06C369.842 187.06 370.934 187.564 371.718 188.502L370.458 189.692C369.982 189.09 369.31 188.684 368.274 188.684C367.224 188.684 366.678 189.104 366.678 189.832C366.678 190.574 367.098 190.882 368.036 191.05L368.946 191.218C370.92 191.568 371.844 192.45 371.844 194.06C371.844 195.908 370.514 197.168 368.176 197.168ZM376.95 193.556L378.224 189.692H379.904L376.964 198.302C376.6 199.352 376.082 199.8 374.878 199.8H373.8V198.372H375.116L375.452 197.35L372.834 189.692H374.612L375.886 193.556L376.362 195.404H376.446L376.95 193.556ZM383.038 197H381.246V189.692H383.038V190.91H383.108C383.402 190.126 384.018 189.524 385.152 189.524C386.65 189.524 387.49 190.56 387.49 192.38V197H385.698V192.562C385.698 191.526 385.348 190.994 384.494 190.994C383.752 190.994 383.038 191.386 383.038 192.17V197ZM392.521 197.168C390.365 197.168 389.147 195.684 389.147 193.332C389.147 190.994 390.365 189.524 392.521 189.524C393.991 189.524 394.957 190.224 395.391 191.372L393.921 192.03C393.753 191.414 393.291 190.966 392.521 190.966C391.527 190.966 391.023 191.666 391.023 192.688V194.018C391.023 195.04 391.527 195.726 392.521 195.726C393.375 195.726 393.795 195.236 394.061 194.578L395.433 195.236C394.957 196.524 393.935 197.168 392.521 197.168ZM402.403 193.234V197H400.555V187.228H404.965C406.743 187.228 407.849 188.404 407.849 190.252C407.849 191.596 407.233 192.618 406.029 193.024L408.031 197H405.973L404.153 193.234H402.403ZM402.403 191.68H404.783C405.497 191.68 405.931 191.288 405.931 190.574V189.93C405.931 189.216 405.497 188.838 404.783 188.838H402.403V191.68ZM412.649 197.168C410.493 197.168 409.205 195.67 409.205 193.332C409.205 191.022 410.451 189.524 412.593 189.524C414.875 189.524 415.925 191.204 415.925 193.206V193.794H411.067V193.976C411.067 195.026 411.669 195.74 412.845 195.74C413.727 195.74 414.259 195.32 414.707 194.746L415.673 195.824C415.071 196.65 414.007 197.168 412.649 197.168ZM412.621 190.868C411.683 190.868 411.067 191.568 411.067 192.576V192.688H414.063V192.562C414.063 191.554 413.545 190.868 412.621 190.868ZM417.661 199.8V189.692H419.453V190.896H419.509C419.775 190.056 420.559 189.524 421.525 189.524C423.373 189.524 424.395 190.896 424.395 193.332C424.395 195.782 423.373 197.168 421.525 197.168C420.559 197.168 419.789 196.608 419.509 195.782H419.453V199.8H417.661ZM420.951 195.684C421.875 195.684 422.519 195.012 422.519 193.976V192.716C422.519 191.68 421.875 190.994 420.951 190.994C420.097 190.994 419.453 191.456 419.453 192.17V194.494C419.453 195.25 420.097 195.684 420.951 195.684ZM428.974 197H428.008C426.79 197 426.216 196.356 426.216 195.236V186.64H428.008V195.572H428.974V197ZM431.387 188.628C430.645 188.628 430.337 188.25 430.337 187.732V187.452C430.337 186.934 430.645 186.556 431.387 186.556C432.115 186.556 432.437 186.934 432.437 187.452V187.732C432.437 188.25 432.115 188.628 431.387 188.628ZM430.491 197V189.692H432.283V197H430.491ZM437.404 197.168C435.248 197.168 434.03 195.684 434.03 193.332C434.03 190.994 435.248 189.524 437.404 189.524C438.874 189.524 439.84 190.224 440.274 191.372L438.804 192.03C438.636 191.414 438.174 190.966 437.404 190.966C436.41 190.966 435.906 191.666 435.906 192.688V194.018C435.906 195.04 436.41 195.726 437.404 195.726C438.258 195.726 438.678 195.236 438.944 194.578L440.316 195.236C439.84 196.524 438.818 197.168 437.404 197.168ZM443.664 197.168C442.18 197.168 441.34 196.314 441.34 195.012C441.34 193.514 442.474 192.772 444.462 192.772H445.708V192.24C445.708 191.428 445.302 190.952 444.35 190.952C443.51 190.952 443.034 191.372 442.684 191.876L441.62 190.924C442.152 190.084 443.006 189.524 444.476 189.524C446.45 189.524 447.5 190.462 447.5 192.128V195.572H448.228V197H447.234C446.464 197 445.988 196.496 445.876 195.74H445.792C445.554 196.678 444.756 197.168 443.664 197.168ZM444.266 195.866C445.064 195.866 445.708 195.502 445.708 194.816V193.85H444.56C443.622 193.85 443.16 194.172 443.16 194.746V194.984C443.16 195.572 443.566 195.866 444.266 195.866ZM452.232 197.168C450.846 197.168 449.936 196.664 449.208 195.824L450.3 194.76C450.832 195.376 451.476 195.754 452.302 195.754C453.156 195.754 453.52 195.432 453.52 194.914C453.52 194.494 453.268 194.228 452.624 194.144L451.896 194.046C450.328 193.85 449.46 193.164 449.46 191.834C449.46 190.42 450.566 189.524 452.232 189.524C453.66 189.524 454.388 189.944 455.088 190.672L454.038 191.722C453.618 191.274 453.002 190.938 452.288 190.938C451.518 190.938 451.182 191.246 451.182 191.694C451.182 192.184 451.448 192.408 452.134 192.52L452.876 192.618C454.472 192.842 455.242 193.556 455.242 194.774C455.242 196.188 454.052 197.168 452.232 197.168Z" fill="black"/>
<rect width="24" height="24" transform="translate(304 180)" fill="white" fill-opacity="0.01" style="mix-blend-mode:multiply"/>
<path d="M319 195V196.5H322.915C321.971 197.947 320.598 199.062 318.987 199.689C317.377 200.315 315.611 200.42 313.938 199.99L313.564 201.443C315.355 201.903 317.24 201.845 319 201.274C320.759 200.704 322.32 199.644 323.5 198.22V201H325V195H319Z" fill="#161616"/>
<path d="M322.75 182.25C321.955 182.251 321.192 182.567 320.63 183.13C320.067 183.692 319.751 184.455 319.75 185.25C319.753 185.784 319.9 186.307 320.175 186.764L310.764 196.175C310.307 195.9 309.784 195.753 309.25 195.75C308.657 195.75 308.077 195.926 307.583 196.256C307.09 196.585 306.705 197.054 306.478 197.602C306.251 198.15 306.192 198.753 306.308 199.335C306.423 199.917 306.709 200.452 307.129 200.871C307.548 201.291 308.083 201.577 308.665 201.692C309.247 201.808 309.85 201.749 310.398 201.522C310.946 201.295 311.415 200.91 311.744 200.417C312.074 199.923 312.25 199.343 312.25 198.75C312.247 198.216 312.1 197.693 311.825 197.236L321.236 187.825C321.693 188.1 322.216 188.247 322.75 188.25C323.546 188.25 324.309 187.934 324.871 187.371C325.434 186.809 325.75 186.046 325.75 185.25C325.75 184.454 325.434 183.691 324.871 183.129C324.309 182.566 323.546 182.25 322.75 182.25ZM309.25 200.25C308.953 200.25 308.663 200.162 308.417 199.997C308.17 199.832 307.978 199.598 307.864 199.324C307.751 199.05 307.721 198.748 307.779 198.457C307.837 198.166 307.98 197.899 308.189 197.689C308.399 197.48 308.666 197.337 308.957 197.279C309.248 197.221 309.55 197.251 309.824 197.364C310.098 197.478 310.332 197.67 310.497 197.917C310.662 198.163 310.75 198.453 310.75 198.75C310.75 199.148 310.591 199.529 310.31 199.81C310.029 200.091 309.648 200.25 309.25 200.25ZM322.75 186.75C322.453 186.75 322.163 186.662 321.917 186.497C321.67 186.332 321.478 186.098 321.364 185.824C321.251 185.55 321.221 185.248 321.279 184.957C321.337 184.666 321.48 184.399 321.689 184.189C321.899 183.98 322.166 183.837 322.457 183.779C322.748 183.721 323.05 183.751 323.324 183.864C323.598 183.978 323.832 184.17 323.997 184.417C324.162 184.663 324.25 184.953 324.25 185.25C324.25 185.648 324.091 186.029 323.81 186.31C323.529 186.591 323.148 186.75 322.75 186.75Z" fill="#161616"/>
<path d="M316 182.25C314.568 182.253 313.153 182.571 311.857 183.181C310.562 183.791 309.415 184.678 308.5 185.78V183H307V189H313V187.5H309.085C310.029 186.053 311.402 184.938 313.013 184.311C314.623 183.685 316.389 183.58 318.063 184.01L318.436 182.557C317.64 182.353 316.822 182.25 316 182.25Z" fill="#161616"/>
<line x1="290" y1="168" x2="290" y2="216" stroke="#8D8D8D" stroke-width="4"/>
</g>
<rect width="208" height="192" transform="translate(64 240)" fill="white"/>
<rect x="64" y="240" width="208" height="192" fill="white"/>
<g clip-path="url(#clip3_571_10611)">
<path d="M127.854 267.362V269H120.532V267.348L125.586 260.866H120.784V259.228H127.714V260.88L122.646 267.362H127.854ZM132.407 269.168C130.32 269.168 129.018 267.684 129.018 265.332C129.018 262.994 130.32 261.524 132.407 261.524C134.507 261.524 135.809 262.994 135.809 265.332C135.809 267.684 134.507 269.168 132.407 269.168ZM132.407 267.726C133.345 267.726 133.933 267.124 133.933 266.018V264.66C133.933 263.568 133.345 262.966 132.407 262.966C131.482 262.966 130.894 263.568 130.894 264.66V266.018C130.894 267.124 131.482 267.726 132.407 267.726ZM139.349 269H137.557V261.692H139.349V262.91H139.419C139.713 262.126 140.329 261.524 141.463 261.524C142.961 261.524 143.801 262.56 143.801 264.38V269H142.009V264.562C142.009 263.526 141.659 262.994 140.805 262.994C140.063 262.994 139.349 263.386 139.349 264.17V269ZM148.902 269.168C146.746 269.168 145.458 267.67 145.458 265.332C145.458 263.022 146.704 261.524 148.846 261.524C151.128 261.524 152.178 263.204 152.178 265.206V265.794H147.32V265.976C147.32 267.026 147.922 267.74 149.098 267.74C149.98 267.74 150.512 267.32 150.96 266.746L151.926 267.824C151.324 268.65 150.26 269.168 148.902 269.168ZM148.874 262.868C147.936 262.868 147.32 263.568 147.32 264.576V264.688H150.316V264.562C150.316 263.554 149.798 262.868 148.874 262.868ZM164.355 269H157.621V267.502H160.309V260.558H160.183L158.055 263.078L156.907 262.112L159.329 259.228H162.115V267.502H164.355V269Z" fill="black"/>
<rect width="24" height="24" transform="translate(80 252)" fill="white" fill-opacity="0.01" style="mix-blend-mode:multiply"/>
<path d="M101 259.5H97.25V256.5C97.2495 256.102 97.0914 255.721 96.8102 255.44C96.529 255.159 96.1477 255 95.75 255H88.25C87.8523 255 87.4711 255.159 87.1898 255.44C86.9086 255.721 86.7505 256.102 86.75 256.5V259.5H83C82.6023 259.5 82.221 259.659 81.9398 259.94C81.6586 260.221 81.5005 260.602 81.5 261V273C81.5005 273.398 81.6586 273.779 81.9398 274.06C82.221 274.341 82.6023 274.5 83 274.5H101C101.398 274.5 101.779 274.341 102.06 274.06C102.341 273.779 102.5 273.398 102.5 273V261C102.5 260.602 102.341 260.221 102.06 259.94C101.779 259.659 101.398 259.5 101 259.5ZM83 273V261H86.75V262.5H85.25V264H86.75V265.5H85.25V267H86.75V268.5H85.25V270H86.75V273H83ZM95.75 273H88.25V256.5H95.75V273ZM101 273H97.25V270H98.75V268.5H97.25V267H98.75V265.5H97.25V264H98.75V262.5H97.25V261H101V273Z" fill="black"/>
<path d="M93.5 258H90.5V259.5H93.5V258Z" fill="black"/>
<path d="M93.5 261H90.5V262.5H93.5V261Z" fill="black"/>
<path d="M93.5 264H90.5V265.5H93.5V264Z" fill="black"/>
</g>
<path d="M70 240V240.5H74V240H78V240.5H82V240H86V240.5H90V240H94V240.5H98V240H102V240.5H106V240H110V240.5H114V240H118V240.5H122V240H126V240.5H130V240H134V240.5H138V240H142V240.5H146V240H150V240.5H154V240H158V240.5H162V240H166V240.5H170V240H174V240.5H178V240H182V240.5H186V240H190V240.5H194V240H198V240.5H202V240H206V240.5H210V240H214V240.5H218V240H222V240.5H226V240H230V240.5H234V240H238V240.5H242V240H246V240.5H250V240H254V240.5H258V240H262V240.5H266V240H270V240.5H271.5V242H272V246H271.5V250H272V254H271.5V258H272V262H271.5V266H272V270H271.5V274H272V278H271.5V282H272V286H271.5V290H272V294H271.5V298H272V302H271.5V306H272V310H271.5V314H272V318H271.5V322H272V326H271.5V330H272V334H271.5V338H272V342H271.5V346H272V350H271.5V354H272V358H271.5V362H272V366H271.5V370H272V374H271.5V378H272V382H271.5V386H272V390H271.5V394H272V398H271.5V402H272V406H271.5V410H272V414H271.5V418H272V422H271.5V426H272V430H271.5V431.5H270V432H266V431.5H262V432H258V431.5H254V432H250V431.5H246V432H242V431.5H238V432H234V431.5H230V432H226V431.5H222V432H218V431.5H214V432H210V431.5H206V432H202V431.5H198V432H194V431.5H190V432H186V431.5H182V432H178V431.5H174V432H170V431.5H166V432H162V431.5H158V432H154V431.5H150V432H146V431.5H142V432H138V431.5H134V432H130V431.5H126V432H122V431.5H118V432H114V431.5H110V432H106V431.5H102V432H98V431.5H94V432H90V431.5H86V432H82V431.5H78V432H74V431.5H70V432H66V431.5H64.5V430H64V426H64.5V422H64V418H64.5V414H64V410H64.5V406H64V402H64.5V398H64V394H64.5V390H64V386H64.5V382H64V378H64.5V374H64V370H64.5V366H64V362H64.5V358H64V354H64.5V350H64V346H64.5V342H64V338H64.5V334H64V330H64.5V326H64V322H64.5V318H64V314H64.5V310H64V306H64.5V302H64V298H64.5V294H64V290H64.5V286H64V282H64.5V278H64V274H64.5V270H64V266H64.5V262H64V258H64.5V254H64V250H64.5V246H64V242H64.5V240.5H66V240H70Z" stroke="black" stroke-dasharray="4 4"/>
<rect width="80" height="80" transform="translate(128 296)" fill="white" fill-opacity="0.01" style="mix-blend-mode:multiply"/>
<path d="M152 299H184C188.418 299 192 302.582 192 307V339C192 343.418 188.418 347 184 347H152C147.582 347 144 343.418 144 339V307C144 302.582 147.582 299 152 299Z" fill="#0F62FE"/>
<rect width="24" height="24" transform="translate(156 311)" fill="white" fill-opacity="0.01"/>
<path d="M173.625 317.9L172.875 319.175C174.525 320.075 175.5 321.875 175.5 323.75C175.5 327.65 172.65 330.275 171 331.4V329H170.25C168.375 329 166.575 327.95 165.675 326.3L164.4 327.05C165.45 329 167.4 330.2 169.575 330.5V332.75C169.575 332.975 169.725 333.275 169.95 333.425C169.95 333.5 170.1 333.5 170.25 333.5C170.4 333.5 170.475 333.5 170.55 333.425C170.85 333.275 177 330.125 177 323.75C177 321.35 175.725 319.1 173.625 317.9Z" fill="white"/>
<path d="M171 320.825V316.85C171.9 316.55 172.5 315.725 172.5 314.75C172.5 313.475 171.525 312.5 170.25 312.5C168.975 312.5 168 313.475 168 314.75C168 315.725 168.6 316.55 169.5 316.85V320.825C169.2 320.9 168.975 320.975 168.75 321.125L164.775 317.15C164.925 316.925 165 316.625 165 316.25C165 314.975 164.025 314 162.75 314C161.475 314 160.5 314.975 160.5 316.25C160.5 317.525 161.475 318.5 162.75 318.5C163.125 318.5 163.425 318.425 163.725 318.275L167.7 322.25C167.55 322.475 167.475 322.775 167.4 323H163.35C163.05 322.1 162.225 321.5 161.25 321.5C159.975 321.5 159 322.475 159 323.75C159 325.025 159.975 326 161.25 326C162.225 326 163.05 325.4 163.35 324.5H167.325C167.625 325.775 168.825 326.75 170.25 326.75C171.9 326.75 173.25 325.4 173.25 323.75C173.25 322.325 172.275 321.2 171 320.825ZM170.25 314C170.7 314 171 314.3 171 314.75C171 315.2 170.7 315.5 170.25 315.5C169.8 315.5 169.5 315.2 169.5 314.75C169.5 314.3 169.8 314 170.25 314ZM162.75 317C162.3 317 162 316.7 162 316.25C162 315.8 162.3 315.5 162.75 315.5C163.2 315.5 163.5 315.8 163.5 316.25C163.5 316.7 163.2 317 162.75 317ZM161.25 324.5C160.8 324.5 160.5 324.2 160.5 323.75C160.5 323.3 160.8 323 161.25 323C161.7 323 162 323.3 162 323.75C162 324.2 161.7 324.5 161.25 324.5ZM170.25 325.25C169.425 325.25 168.75 324.575 168.75 323.75C168.75 322.925 169.425 322.25 170.25 322.25C171.075 322.25 171.75 322.925 171.75 323.75C171.75 324.575 171.075 325.25 170.25 325.25Z" fill="white"/>
<path d="M152.202 369H146.504V359.228H148.352V367.362H152.202V369ZM156.67 369.168C154.514 369.168 153.226 367.67 153.226 365.332C153.226 363.022 154.472 361.524 156.614 361.524C158.896 361.524 159.946 363.204 159.946 365.206V365.794H155.088V365.976C155.088 367.026 155.69 367.74 156.866 367.74C157.748 367.74 158.28 367.32 158.728 366.746L159.694 367.824C159.092 368.65 158.028 369.168 156.67 369.168ZM156.642 362.868C155.704 362.868 155.088 363.568 155.088 364.576V364.688H158.084V364.562C158.084 363.554 157.566 362.868 156.642 362.868ZM163.489 369.168C162.005 369.168 161.165 368.314 161.165 367.012C161.165 365.514 162.299 364.772 164.287 364.772H165.533V364.24C165.533 363.428 165.127 362.952 164.175 362.952C163.335 362.952 162.859 363.372 162.509 363.876L161.445 362.924C161.977 362.084 162.831 361.524 164.301 361.524C166.275 361.524 167.325 362.462 167.325 364.128V367.572H168.053V369H167.059C166.289 369 165.813 368.496 165.701 367.74H165.617C165.379 368.678 164.581 369.168 163.489 369.168ZM164.091 367.866C164.889 367.866 165.533 367.502 165.533 366.816V365.85H164.385C163.447 365.85 162.985 366.172 162.985 366.746V366.984C162.985 367.572 163.391 367.866 164.091 367.866ZM174.199 369V367.782H174.129C173.863 368.608 173.079 369.168 172.113 369.168C170.279 369.168 169.257 367.782 169.257 365.332C169.257 362.896 170.279 361.524 172.113 361.524C173.079 361.524 173.877 362.056 174.129 362.896H174.199V358.64H175.991V369H174.199ZM172.687 367.684C173.541 367.684 174.199 367.25 174.199 366.494V364.17C174.199 363.456 173.541 362.994 172.687 362.994C171.763 362.994 171.133 363.68 171.133 364.716V365.976C171.133 367.012 171.763 367.684 172.687 367.684ZM181.171 369.168C179.015 369.168 177.727 367.67 177.727 365.332C177.727 363.022 178.973 361.524 181.115 361.524C183.397 361.524 184.447 363.204 184.447 365.206V365.794H179.589V365.976C179.589 367.026 180.191 367.74 181.367 367.74C182.249 367.74 182.781 367.32 183.229 366.746L184.195 367.824C183.593 368.65 182.529 369.168 181.171 369.168ZM181.143 362.868C180.205 362.868 179.589 363.568 179.589 364.576V364.688H182.585V364.562C182.585 363.554 182.067 362.868 181.143 362.868ZM187.976 369H186.184V361.692H187.976V363.204H188.046C188.228 362.434 188.816 361.692 189.978 361.692H190.37V363.386H189.81C188.606 363.386 187.976 363.722 187.976 364.52V369Z" fill="black"/>
<rect width="208" height="192" transform="translate(304 240)" fill="white"/>
<rect x="304" y="240" width="208" height="192" fill="white"/>
<g clip-path="url(#clip4_571_10611)">
<path d="M367.854 267.362V269H360.532V267.348L365.586 260.866H360.784V259.228H367.714V260.88L362.646 267.362H367.854ZM372.407 269.168C370.32 269.168 369.018 267.684 369.018 265.332C369.018 262.994 370.32 261.524 372.407 261.524C374.507 261.524 375.809 262.994 375.809 265.332C375.809 267.684 374.507 269.168 372.407 269.168ZM372.407 267.726C373.345 267.726 373.933 267.124 373.933 266.018V264.66C373.933 263.568 373.345 262.966 372.407 262.966C371.482 262.966 370.894 263.568 370.894 264.66V266.018C370.894 267.124 371.482 267.726 372.407 267.726ZM379.349 269H377.557V261.692H379.349V262.91H379.419C379.713 262.126 380.329 261.524 381.463 261.524C382.961 261.524 383.801 262.56 383.801 264.38V269H382.009V264.562C382.009 263.526 381.659 262.994 380.805 262.994C380.063 262.994 379.349 263.386 379.349 264.17V269ZM388.902 269.168C386.746 269.168 385.458 267.67 385.458 265.332C385.458 263.022 386.704 261.524 388.846 261.524C391.128 261.524 392.178 263.204 392.178 265.206V265.794H387.32V265.976C387.32 267.026 387.922 267.74 389.098 267.74C389.98 267.74 390.512 267.32 390.96 266.746L391.926 267.824C391.324 268.65 390.26 269.168 388.902 269.168ZM388.874 262.868C387.936 262.868 387.32 263.568 387.32 264.576V264.688H390.316V264.562C390.316 263.554 389.798 262.868 388.874 262.868ZM403.991 267.446V269H397.215V267.292L400.281 264.604C401.317 263.694 401.793 263.022 401.793 262.168V261.986C401.793 261.132 401.149 260.656 400.351 260.656C399.343 260.656 398.867 261.314 398.643 262.112L397.047 261.496C397.467 260.194 398.517 259.06 400.505 259.06C402.563 259.06 403.739 260.292 403.739 261.972C403.739 263.596 402.633 264.632 401.275 265.752L399.217 267.446H403.991Z" fill="black"/>
<rect width="24" height="24" transform="translate(320 252)" fill="white" fill-opacity="0.01" style="mix-blend-mode:multiply"/>
<path d="M341 259.5H337.25V256.5C337.25 256.102 337.091 255.721 336.81 255.44C336.529 255.159 336.148 255 335.75 255H328.25C327.852 255 327.471 255.159 327.19 255.44C326.909 255.721 326.75 256.102 326.75 256.5V259.5H323C322.602 259.5 322.221 259.659 321.94 259.94C321.659 260.221 321.5 260.602 321.5 261V273C321.5 273.398 321.659 273.779 321.94 274.06C322.221 274.341 322.602 274.5 323 274.5H341C341.398 274.5 341.779 274.341 342.06 274.06C342.341 273.779 342.5 273.398 342.5 273V261C342.5 260.602 342.341 260.221 342.06 259.94C341.779 259.659 341.398 259.5 341 259.5ZM323 273V261H326.75V262.5H325.25V264H326.75V265.5H325.25V267H326.75V268.5H325.25V270H326.75V273H323ZM335.75 273H328.25V256.5H335.75V273ZM341 273H337.25V270H338.75V268.5H337.25V267H338.75V265.5H337.25V264H338.75V262.5H337.25V261H341V273Z" fill="black"/>
<path d="M333.5 258H330.5V259.5H333.5V258Z" fill="black"/>
<path d="M333.5 261H330.5V262.5H333.5V261Z" fill="black"/>
<path d="M333.5 264H330.5V265.5H333.5V264Z" fill="black"/>
</g>
<path d="M310 240V240.5H314V240H318V240.5H322V240H326V240.5H330V240H334V240.5H338V240H342V240.5H346V240H350V240.5H354V240H358V240.5H362V240H366V240.5H370V240H374V240.5H378V240H382V240.5H386V240H390V240.5H394V240H398V240.5H402V240H406V240.5H410V240H414V240.5H418V240H422V240.5H426V240H430V240.5H434V240H438V240.5H442V240H446V240.5H450V240H454V240.5H458V240H462V240.5H466V240H470V240.5H474V240H478V240.5H482V240H486V240.5H490V240H494V240.5H498V240H502V240.5H506V240H510V240.5H511.5V242H512V246H511.5V250H512V254H511.5V258H512V262H511.5V266H512V270H511.5V274H512V278H511.5V282H512V286H511.5V290H512V294H511.5V298H512V302H511.5V306H512V310H511.5V314H512V318H511.5V322H512V326H511.5V330H512V334H511.5V338H512V342H511.5V346H512V350H511.5V354H512V358H511.5V362H512V366H511.5V370H512V374H511.5V378H512V382H511.5V386H512V390H511.5V394H512V398H511.5V402H512V406H511.5V410H512V414H511.5V418H512V422H511.5V426H512V430H511.5V431.5H510V432H506V431.5H502V432H498V431.5H494V432H490V431.5H486V432H482V431.5H478V432H474V431.5H470V432H466V431.5H462V432H458V431.5H454V432H450V431.5H446V432H442V431.5H438V432H434V431.5H430V432H426V431.5H422V432H418V431.5H414V432H410V431.5H406V432H402V431.5H398V432H394V431.5H390V432H386V431.5H382V432H378V431.5H374V432H370V431.5H366V432H362V431.5H358V432H354V431.5H350V432H346V431.5H342V432H338V431.5H334V432H330V431.5H326V432H322V431.5H318V432H314V431.5H310V432H306V431.5H304.5V430H304V426H304.5V422H304V418H304.5V414H304V410H304.5V406H304V402H304.5V398H304V394H304.5V390H304V386H304.5V382H304V378H304.5V374H304V370H304.5V366H304V362H304.5V358H304V354H304.5V350H304V346H304.5V342H304V338H304.5V334H304V330H304.5V326H304V322H304.5V318H304V314H304.5V310H304V306H304.5V302H304V298H304.5V294H304V290H304.5V286H304V282H304.5V278H304V274H304.5V270H304V266H304.5V262H304V258H304.5V254H304V250H304.5V246H304V242H304.5V240.5H306V240H310Z" stroke="black" stroke-dasharray="4 4"/>
<rect width="80" height="80" transform="translate(368 296)" fill="white" fill-opacity="0.01" style="mix-blend-mode:multiply"/>
<path d="M392 299H424C428.418 299 432 302.582 432 307V339C432 343.418 428.418 347 424 347H392C387.582 347 384 343.418 384 339V307C384 302.582 387.582 299 392 299Z" fill="#0F62FE"/>
<rect width="24" height="24" transform="translate(396 311)" fill="white" fill-opacity="0.01"/>
<path d="M413.625 317.9L412.875 319.175C414.525 320.075 415.5 321.875 415.5 323.75C415.5 327.65 412.65 330.275 411 331.4V329H410.25C408.375 329 406.575 327.95 405.675 326.3L404.4 327.05C405.45 329 407.4 330.2 409.575 330.5V332.75C409.575 332.975 409.725 333.275 409.95 333.425C409.95 333.5 410.1 333.5 410.25 333.5C410.4 333.5 410.475 333.5 410.55 333.425C410.85 333.275 417 330.125 417 323.75C417 321.35 415.725 319.1 413.625 317.9Z" fill="white"/>
<path d="M411 320.825V316.85C411.9 316.55 412.5 315.725 412.5 314.75C412.5 313.475 411.525 312.5 410.25 312.5C408.975 312.5 408 313.475 408 314.75C408 315.725 408.6 316.55 409.5 316.85V320.825C409.2 320.9 408.975 320.975 408.75 321.125L404.775 317.15C404.925 316.925 405 316.625 405 316.25C405 314.975 404.025 314 402.75 314C401.475 314 400.5 314.975 400.5 316.25C400.5 317.525 401.475 318.5 402.75 318.5C403.125 318.5 403.425 318.425 403.725 318.275L407.7 322.25C407.55 322.475 407.475 322.775 407.4 323H403.35C403.05 322.1 402.225 321.5 401.25 321.5C399.975 321.5 399 322.475 399 323.75C399 325.025 399.975 326 401.25 326C402.225 326 403.05 325.4 403.35 324.5H407.325C407.625 325.775 408.825 326.75 410.25 326.75C411.9 326.75 413.25 325.4 413.25 323.75C413.25 322.325 412.275 321.2 411 320.825ZM410.25 314C410.7 314 411 314.3 411 314.75C411 315.2 410.7 315.5 410.25 315.5C409.8 315.5 409.5 315.2 409.5 314.75C409.5 314.3 409.8 314 410.25 314ZM402.75 317C402.3 317 402 316.7 402 316.25C402 315.8 402.3 315.5 402.75 315.5C403.2 315.5 403.5 315.8 403.5 316.25C403.5 316.7 403.2 317 402.75 317ZM401.25 324.5C400.8 324.5 400.5 324.2 400.5 323.75C400.5 323.3 400.8 323 401.25 323C401.7 323 402 323.3 402 323.75C402 324.2 401.7 324.5 401.25 324.5ZM410.25 325.25C409.425 325.25 408.75 324.575 408.75 323.75C408.75 322.925 409.425 322.25 410.25 322.25C411.075 322.25 411.75 322.925 411.75 323.75C411.75 324.575 411.075 325.25 410.25 325.25Z" fill="white"/>
<path d="M380.367 365.234V369H378.519V359.228H382.929C384.707 359.228 385.813 360.404 385.813 362.252C385.813 363.596 385.197 364.618 383.993 365.024L385.995 369H383.937L382.117 365.234H380.367ZM380.367 363.68H382.747C383.461 363.68 383.895 363.288 383.895 362.574V361.93C383.895 361.216 383.461 360.838 382.747 360.838H380.367V363.68ZM390.613 369.168C388.457 369.168 387.169 367.67 387.169 365.332C387.169 363.022 388.415 361.524 390.557 361.524C392.839 361.524 393.889 363.204 393.889 365.206V365.794H389.031V365.976C389.031 367.026 389.633 367.74 390.809 367.74C391.691 367.74 392.223 367.32 392.671 366.746L393.637 367.824C393.035 368.65 391.971 369.168 390.613 369.168ZM390.585 362.868C389.647 362.868 389.031 363.568 389.031 364.576V364.688H392.027V364.562C392.027 363.554 391.509 362.868 390.585 362.868ZM395.625 371.8V361.692H397.417V362.896H397.473C397.739 362.056 398.523 361.524 399.489 361.524C401.337 361.524 402.359 362.896 402.359 365.332C402.359 367.782 401.337 369.168 399.489 369.168C398.523 369.168 397.753 368.608 397.473 367.782H397.417V371.8H395.625ZM398.915 367.684C399.839 367.684 400.483 367.012 400.483 365.976V364.716C400.483 363.68 399.839 362.994 398.915 362.994C398.061 362.994 397.417 363.456 397.417 364.17V366.494C397.417 367.25 398.061 367.684 398.915 367.684ZM406.938 369H405.972C404.754 369 404.18 368.356 404.18 367.236V358.64H405.972V367.572H406.938V369ZM409.351 360.628C408.609 360.628 408.301 360.25 408.301 359.732V359.452C408.301 358.934 408.609 358.556 409.351 358.556C410.079 358.556 410.401 358.934 410.401 359.452V359.732C410.401 360.25 410.079 360.628 409.351 360.628ZM408.455 369V361.692H410.247V369H408.455ZM415.368 369.168C413.212 369.168 411.994 367.684 411.994 365.332C411.994 362.994 413.212 361.524 415.368 361.524C416.838 361.524 417.804 362.224 418.238 363.372L416.768 364.03C416.6 363.414 416.138 362.966 415.368 362.966C414.374 362.966 413.87 363.666 413.87 364.688V366.018C413.87 367.04 414.374 367.726 415.368 367.726C416.222 367.726 416.642 367.236 416.908 366.578L418.28 367.236C417.804 368.524 416.782 369.168 415.368 369.168ZM421.628 369.168C420.144 369.168 419.304 368.314 419.304 367.012C419.304 365.514 420.438 364.772 422.426 364.772H423.672V364.24C423.672 363.428 423.266 362.952 422.314 362.952C421.474 362.952 420.998 363.372 420.648 363.876L419.584 362.924C420.116 362.084 420.97 361.524 422.44 361.524C424.414 361.524 425.464 362.462 425.464 364.128V367.572H426.192V369H425.198C424.428 369 423.952 368.496 423.84 367.74H423.756C423.518 368.678 422.72 369.168 421.628 369.168ZM422.23 367.866C423.028 367.866 423.672 367.502 423.672 366.816V365.85H422.524C421.586 365.85 421.124 366.172 421.124 366.746V366.984C421.124 367.572 421.53 367.866 422.23 367.866ZM438.243 369H431.509V367.502H434.197V360.558H434.071L431.943 363.078L430.795 362.112L433.217 359.228H436.003V367.502H438.243V369Z" fill="black"/>
<rect width="208" height="192" transform="translate(544 240)" fill="white"/>
<rect x="544" y="240" width="208" height="192" fill="white"/>
<g clip-path="url(#clip5_571_10611)">
<path d="M607.854 267.362V269H600.532V267.348L605.586 260.866H600.784V259.228H607.714V260.88L602.646 267.362H607.854ZM612.407 269.168C610.32 269.168 609.018 267.684 609.018 265.332C609.018 262.994 610.32 261.524 612.407 261.524C614.507 261.524 615.809 262.994 615.809 265.332C615.809 267.684 614.507 269.168 612.407 269.168ZM612.407 267.726C613.345 267.726 613.933 267.124 613.933 266.018V264.66C613.933 263.568 613.345 262.966 612.407 262.966C611.482 262.966 610.894 263.568 610.894 264.66V266.018C610.894 267.124 611.482 267.726 612.407 267.726ZM619.349 269H617.557V261.692H619.349V262.91H619.419C619.713 262.126 620.329 261.524 621.463 261.524C622.961 261.524 623.801 262.56 623.801 264.38V269H622.009V264.562C622.009 263.526 621.659 262.994 620.805 262.994C620.063 262.994 619.349 263.386 619.349 264.17V269ZM628.902 269.168C626.746 269.168 625.458 267.67 625.458 265.332C625.458 263.022 626.704 261.524 628.846 261.524C631.128 261.524 632.178 263.204 632.178 265.206V265.794H627.32V265.976C627.32 267.026 627.922 267.74 629.098 267.74C629.98 267.74 630.512 267.32 630.96 266.746L631.926 267.824C631.324 268.65 630.26 269.168 628.902 269.168ZM628.874 262.868C627.936 262.868 627.32 263.568 627.32 264.576V264.688H630.316V264.562C630.316 263.554 629.798 262.868 628.874 262.868ZM639.049 263.176H640.015C641.135 263.176 641.653 262.658 641.653 261.958V261.86C641.653 261.062 641.093 260.572 640.211 260.572C639.357 260.572 638.685 261.006 638.209 261.748L637.033 260.684C637.691 259.774 638.615 259.06 640.267 259.06C642.241 259.06 643.585 260.04 643.585 261.608C643.585 262.868 642.731 263.624 641.709 263.834V263.918C642.843 264.128 643.753 264.912 643.753 266.298C643.753 268.02 642.311 269.168 640.155 269.168C638.251 269.168 637.299 268.3 636.683 267.348L638.041 266.312C638.475 267.096 639.063 267.656 640.155 267.656C641.233 267.656 641.835 267.096 641.835 266.186V266.088C641.835 265.192 641.177 264.716 640.015 264.716H639.049V263.176Z" fill="black"/>
<rect width="24" height="24" transform="translate(560 252)" fill="white" fill-opacity="0.01" style="mix-blend-mode:multiply"/>
<path d="M581 259.5H577.25V256.5C577.25 256.102 577.091 255.721 576.81 255.44C576.529 255.159 576.148 255 575.75 255H568.25C567.852 255 567.471 255.159 567.19 255.44C566.909 255.721 566.75 256.102 566.75 256.5V259.5H563C562.602 259.5 562.221 259.659 561.94 259.94C561.659 260.221 561.5 260.602 561.5 261V273C561.5 273.398 561.659 273.779 561.94 274.06C562.221 274.341 562.602 274.5 563 274.5H581C581.398 274.5 581.779 274.341 582.06 274.06C582.341 273.779 582.5 273.398 582.5 273V261C582.5 260.602 582.341 260.221 582.06 259.94C581.779 259.659 581.398 259.5 581 259.5ZM563 273V261H566.75V262.5H565.25V264H566.75V265.5H565.25V267H566.75V268.5H565.25V270H566.75V273H563ZM575.75 273H568.25V256.5H575.75V273ZM581 273H577.25V270H578.75V268.5H577.25V267H578.75V265.5H577.25V264H578.75V262.5H577.25V261H581V273Z" fill="black"/>
<path d="M573.5 258H570.5V259.5H573.5V258Z" fill="black"/>
<path d="M573.5 261H570.5V262.5H573.5V261Z" fill="black"/>
<path d="M573.5 264H570.5V265.5H573.5V264Z" fill="black"/>
</g>
<path d="M550 240V240.5H554V240H558V240.5H562V240H566V240.5H570V240H574V240.5H578V240H582V240.5H586V240H590V240.5H594V240H598V240.5H602V240H606V240.5H610V240H614V240.5H618V240H622V240.5H626V240H630V240.5H634V240H638V240.5H642V240H646V240.5H650V240H654V240.5H658V240H662V240.5H666V240H670V240.5H674V240H678V240.5H682V240H686V240.5H690V240H694V240.5H698V240H702V240.5H706V240H710V240.5H714V240H718V240.5H722V240H726V240.5H730V240H734V240.5H738V240H742V240.5H746V240H750V240.5H751.5V242H752V246H751.5V250H752V254H751.5V258H752V262H751.5V266H752V270H751.5V274H752V278H751.5V282H752V286H751.5V290H752V294H751.5V298H752V302H751.5V306H752V310H751.5V314H752V318H751.5V322H752V326H751.5V330H752V334H751.5V338H752V342H751.5V346H752V350H751.5V354H752V358H751.5V362H752V366H751.5V370H752V374H751.5V378H752V382H751.5V386H752V390H751.5V394H752V398H751.5V402H752V406H751.5V410H752V414H751.5V418H752V422H751.5V426H752V430H751.5V431.5H750V432H746V431.5H742V432H738V431.5H734V432H730V431.5H726V432H722V431.5H718V432H714V431.5H710V432H706V431.5H702V432H698V431.5H694V432H690V431.5H686V432H682V431.5H678V432H674V431.5H670V432H666V431.5H662V432H658V431.5H654V432H650V431.5H646V432H642V431.5H638V432H634V431.5H630V432H626V431.5H622V432H618V431.5H614V432H610V431.5H606V432H602V431.5H598V432H594V431.5H590V432H586V431.5H582V432H578V431.5H574V432H570V431.5H566V432H562V431.5H558V432H554V431.5H550V432H546V431.5H544.5V430H544V426H544.5V422H544V418H544.5V414H544V410H544.5V406H544V402H544.5V398H544V394H544.5V390H544V386H544.5V382H544V378H544.5V374H544V370H544.5V366H544V362H544.5V358H544V354H544.5V350H544V346H544.5V342H544V338H544.5V334H544V330H544.5V326H544V322H544.5V318H544V314H544.5V310H544V306H544.5V302H544V298H544.5V294H544V290H544.5V286H544V282H544.5V278H544V274H544.5V270H544V266H544.5V262H544V258H544.5V254H544V250H544.5V246H544V242H544.5V240.5H546V240H550Z" stroke="black" stroke-dasharray="4 4"/>
<rect width="80" height="80" transform="translate(608 296)" fill="white" fill-opacity="0.01" style="mix-blend-mode:multiply"/>
<path d="M632 299H664C668.418 299 672 302.582 672 307V339C672 343.418 668.418 347 664 347H632C627.582 347 624 343.418 624 339V307C624 302.582 627.582 299 632 299Z" fill="#0F62FE"/>
<rect width="24" height="24" transform="translate(636 311)" fill="white" fill-opacity="0.01"/>
<path d="M653.625 317.9L652.875 319.175C654.525 320.075 655.5 321.875 655.5 323.75C655.5 327.65 652.65 330.275 651 331.4V329H650.25C648.375 329 646.575 327.95 645.675 326.3L644.4 327.05C645.45 329 647.4 330.2 649.575 330.5V332.75C649.575 332.975 649.725 333.275 649.95 333.425C649.95 333.5 650.1 333.5 650.25 333.5C650.4 333.5 650.475 333.5 650.55 333.425C650.85 333.275 657 330.125 657 323.75C657 321.35 655.725 319.1 653.625 317.9Z" fill="white"/>
<path d="M651 320.825V316.85C651.9 316.55 652.5 315.725 652.5 314.75C652.5 313.475 651.525 312.5 650.25 312.5C648.975 312.5 648 313.475 648 314.75C648 315.725 648.6 316.55 649.5 316.85V320.825C649.2 320.9 648.975 320.975 648.75 321.125L644.775 317.15C644.925 316.925 645 316.625 645 316.25C645 314.975 644.025 314 642.75 314C641.475 314 640.5 314.975 640.5 316.25C640.5 317.525 641.475 318.5 642.75 318.5C643.125 318.5 643.425 318.425 643.725 318.275L647.7 322.25C647.55 322.475 647.475 322.775 647.4 323H643.35C643.05 322.1 642.225 321.5 641.25 321.5C639.975 321.5 639 322.475 639 323.75C639 325.025 639.975 326 641.25 326C642.225 326 643.05 325.4 643.35 324.5H647.325C647.625 325.775 648.825 326.75 650.25 326.75C651.9 326.75 653.25 325.4 653.25 323.75C653.25 322.325 652.275 321.2 651 320.825ZM650.25 314C650.7 314 651 314.3 651 314.75C651 315.2 650.7 315.5 650.25 315.5C649.8 315.5 649.5 315.2 649.5 314.75C649.5 314.3 649.8 314 650.25 314ZM642.75 317C642.3 317 642 316.7 642 316.25C642 315.8 642.3 315.5 642.75 315.5C643.2 315.5 643.5 315.8 643.5 316.25C643.5 316.7 643.2 317 642.75 317ZM641.25 324.5C640.8 324.5 640.5 324.2 640.5 323.75C640.5 323.3 640.8 323 641.25 323C641.7 323 642 323.3 642 323.75C642 324.2 641.7 324.5 641.25 324.5ZM650.25 325.25C649.425 325.25 648.75 324.575 648.75 323.75C648.75 322.925 649.425 322.25 650.25 322.25C651.075 322.25 651.75 322.925 651.75 323.75C651.75 324.575 651.075 325.25 650.25 325.25Z" fill="white"/>
<path d="M620.367 365.234V369H618.519V359.228H622.929C624.707 359.228 625.813 360.404 625.813 362.252C625.813 363.596 625.197 364.618 623.993 365.024L625.995 369H623.937L622.117 365.234H620.367ZM620.367 363.68H622.747C623.461 363.68 623.895 363.288 623.895 362.574V361.93C623.895 361.216 623.461 360.838 622.747 360.838H620.367V363.68ZM630.613 369.168C628.457 369.168 627.169 367.67 627.169 365.332C627.169 363.022 628.415 361.524 630.557 361.524C632.839 361.524 633.889 363.204 633.889 365.206V365.794H629.031V365.976C629.031 367.026 629.633 367.74 630.809 367.74C631.691 367.74 632.223 367.32 632.671 366.746L633.637 367.824C633.035 368.65 631.971 369.168 630.613 369.168ZM630.585 362.868C629.647 362.868 629.031 363.568 629.031 364.576V364.688H632.027V364.562C632.027 363.554 631.509 362.868 630.585 362.868ZM635.625 371.8V361.692H637.417V362.896H637.473C637.739 362.056 638.523 361.524 639.489 361.524C641.337 361.524 642.359 362.896 642.359 365.332C642.359 367.782 641.337 369.168 639.489 369.168C638.523 369.168 637.753 368.608 637.473 367.782H637.417V371.8H635.625ZM638.915 367.684C639.839 367.684 640.483 367.012 640.483 365.976V364.716C640.483 363.68 639.839 362.994 638.915 362.994C638.061 362.994 637.417 363.456 637.417 364.17V366.494C637.417 367.25 638.061 367.684 638.915 367.684ZM646.938 369H645.972C644.754 369 644.18 368.356 644.18 367.236V358.64H645.972V367.572H646.938V369ZM649.351 360.628C648.609 360.628 648.301 360.25 648.301 359.732V359.452C648.301 358.934 648.609 358.556 649.351 358.556C650.079 358.556 650.401 358.934 650.401 359.452V359.732C650.401 360.25 650.079 360.628 649.351 360.628ZM648.455 369V361.692H650.247V369H648.455ZM655.368 369.168C653.212 369.168 651.994 367.684 651.994 365.332C651.994 362.994 653.212 361.524 655.368 361.524C656.838 361.524 657.804 362.224 658.238 363.372L656.768 364.03C656.6 363.414 656.138 362.966 655.368 362.966C654.374 362.966 653.87 363.666 653.87 364.688V366.018C653.87 367.04 654.374 367.726 655.368 367.726C656.222 367.726 656.642 367.236 656.908 366.578L658.28 367.236C657.804 368.524 656.782 369.168 655.368 369.168ZM661.628 369.168C660.144 369.168 659.304 368.314 659.304 367.012C659.304 365.514 660.438 364.772 662.426 364.772H663.672V364.24C663.672 363.428 663.266 362.952 662.314 362.952C661.474 362.952 660.998 363.372 660.648 363.876L659.584 362.924C660.116 362.084 660.97 361.524 662.44 361.524C664.414 361.524 665.464 362.462 665.464 364.128V367.572H666.192V369H665.198C664.428 369 663.952 368.496 663.84 367.74H663.756C663.518 368.678 662.72 369.168 661.628 369.168ZM662.23 367.866C663.028 367.866 663.672 367.502 663.672 366.816V365.85H662.524C661.586 365.85 661.124 366.172 661.124 366.746V366.984C661.124 367.572 661.53 367.866 662.23 367.866ZM677.879 367.446V369H671.103V367.292L674.169 364.604C675.205 363.694 675.681 363.022 675.681 362.168V361.986C675.681 361.132 675.037 360.656 674.239 360.656C673.231 360.656 672.755 361.314 672.531 362.112L670.935 361.496C671.355 360.194 672.405 359.06 674.393 359.06C676.451 359.06 677.627 360.292 677.627 361.972C677.627 363.596 676.521 364.632 675.163 365.752L673.105 367.446H677.879Z" fill="black"/>
<defs>
<clipPath id="clip0_571_10611">
<rect width="1152" height="48" fill="white"/>
</clipPath>
<clipPath id="clip1_571_10611">
<rect width="1056" height="48" fill="white" transform="translate(48 96)"/>
</clipPath>
<clipPath id="clip2_571_10611">
<rect width="496" height="48" fill="white" transform="translate(288 168)"/>
</clipPath>
<clipPath id="clip3_571_10611">
<rect width="208" height="48" fill="white" transform="translate(64 240)"/>
</clipPath>
<clipPath id="clip4_571_10611">
<rect width="208" height="48" fill="white" transform="translate(304 240)"/>
</clipPath>
<clipPath id="clip5_571_10611">
<rect width="208" height="48" fill="white" transform="translate(544 240)"/>
</clipPath>
</defs>
</svg>
