<?xml version="1.0" encoding="utf-8"?>
<!-- Generator: Adobe Illustrator 26.4.1, SVG Export Plug-In . SVG Version: 6.00 Build 0)  -->
<svg version="1.1" id="Layer_1" xmlns="http://www.w3.org/2000/svg" xmlns:xlink="http://www.w3.org/1999/xlink" x="0px" y="0px"
	 viewBox="0 0 640 352" style="enable-background:new 0 0 640 352;" xml:space="preserve">
<style type="text/css">
	.st0{fill:#E7E9F7;}
	.st1{fill:none;stroke:#B0BEF3;stroke-width:0.56;stroke-miterlimit:10;}
	.st2{fill:#D1D7F4;}
	.st3{fill:#3C6DF0;}
	.st4{fill:#FFFFFF;}
	.st5{font-family:'IBMPlexMono';}
	.st6{font-size:15px;}
	.st7{fill:none;stroke:#3C6DF0;stroke-width:2;stroke-linecap:round;stroke-linejoin:round;}
	.st8{opacity:0.5;fill:#2F56BD;enable-background:new    ;}
	.st9{fill:#1D364D;}
	.st10{font-family:'IBMPlexSans';}
	.st11{font-size:12px;}
	.st12{fill:#E2E4E8;}
	.st13{fill:#333333;}
	.st14{font-size:16.94px;}
	.st15{fill:none;stroke:#F2F4F8;stroke-width:2;stroke-linecap:round;stroke-linejoin:round;}
	.st16{fill:#F2F4F8;}
	.st17{font-family:'IBMPlexSans-SemiBold';}
	.st18{font-size:11px;}
	.st19{fill-rule:evenodd;clip-rule:evenodd;fill:#1D364D;}
	.st20{clip-path:url(#SVGID_00000122708102239516851320000018354742644869676676_);}
</style>
<g id="Layer_3">
	<path class="st0" d="M4-0.5h632c2.2,0,4,1.8,4,4v344c0,2.2-1.8,4-4,4H4c-2.2,0-4-1.8-4-4V3.5C0,1.3,1.8-0.5,4-0.5z"/>
	<ellipse class="st1" cx="462.8" cy="111.7" rx="2.1" ry="2"/>
	<ellipse class="st1" cx="493.3" cy="108.8" rx="2.1" ry="2"/>
	<ellipse class="st1" cx="551.1" cy="84.5" rx="2.1" ry="2"/>
	<ellipse class="st1" cx="562.9" cy="106.1" rx="2.1" ry="2"/>
	<path class="st2" d="M503.6,81.5h-1.3c-0.6,0-1-0.4-1-1v-1.3c0-0.6-0.4-1-1-1c0,0,0,0-0.1,0l0,0c-0.6,0-1,0.4-1,0.9c0,0,0,0,0,0.1
		v1.3c0,0.6-0.4,1-1,1c0,0,0,0-0.1,0h-1.3c-0.6,0-1,0.4-1,1l0,0c0,0.6,0.4,1,1,1h1.3c0.6,0,1,0.4,1,0.9c0,0,0,0,0,0.1v1.3
		c0,0.6,0.4,1,1,1c0,0,0,0,0.1,0l0,0c0.6,0,1-0.4,1-0.9c0,0,0,0,0-0.1v-1.3c0-0.6,0.4-1,1-1h1.3c0.6,0,1-0.4,1-0.9c0,0,0,0,0-0.1
		l0,0C504.7,82,504.2,81.5,503.6,81.5L503.6,81.5z"/>
	<path class="st2" d="M532.3,96.8H531c-0.6,0-1-0.4-1-0.9c0,0,0,0,0-0.1v-1.3c0-0.6-0.4-1-1-1l0,0c-0.6,0-1,0.4-1,1v1.3
		c0,0.6-0.4,1-1,1c0,0,0,0-0.1,0h-1.3c-0.6,0-1,0.4-1,0.9c0,0,0,0,0,0.1l0,0c0,0.6,0.4,1,1,1c0,0,0,0,0.1,0h1.3c0.6,0,1,0.4,1,0.9
		c0,0,0,0,0,0.1v1.3c0,0.6,0.4,1,1,1l0,0c0.6,0,1-0.4,1-1v-1.2c0-0.6,0.4-1,1-1c0,0,0,0,0.1,0h1.3c0.6,0,1-0.4,1-0.9c0,0,0,0,0-0.1
		l0,0c0-0.6-0.4-1-1-1C532.4,96.8,532.3,96.8,532.3,96.8z"/>
	<path class="st2" d="M587.3,104.2H586c-0.6,0-1-0.4-1-0.9c0,0,0,0,0-0.1v-1.3c0-0.6-0.4-1-1-1l0,0c-0.6,0-1,0.4-1,1v1.3
		c0,0.6-0.4,1-1,1c0,0,0,0-0.1,0h-1.3c-0.6,0-1,0.4-1,1l0,0c0,0.6,0.4,1,1,1h1.3c0.6,0,1,0.4,1,0.9c0,0,0,0,0,0.1v1.3
		c0,0.6,0.4,1,1,1l0,0c0.6,0,1-0.4,1-1v-1.3c0-0.6,0.4-1,1-1c0,0,0,0,0.1,0h1.3c0.6,0,1-0.4,1-0.9c0,0,0,0,0-0.1l0,0
		C588.4,104.6,587.9,104.1,587.3,104.2C587.3,104.1,587.3,104.1,587.3,104.2z"/>
</g>
<g id="Layer_5">
	<rect x="224" y="96" class="st3" width="176" height="176"/>
	<text transform="matrix(1 0 0 1 233.04 126.92)" class="st4 st5 st6">101101101001000</text>
	<text transform="matrix(1 0 0 1 233.04 149.51)" class="st4 st5 st6">000101011101100</text>
	<text transform="matrix(1 0 0 1 233.04 172.1)" class="st4 st5 st6">001011101000110</text>
	<text transform="matrix(1 0 0 1 233.04 194.69)" class="st4 st5 st6">010101110010011</text>
	<text transform="matrix(1 0 0 1 233.04 217.28)" class="st4 st5 st6">101000110111101</text>
	<text transform="matrix(1 0 0 1 233.04 239.87)" class="st4 st5 st6">10111000100001</text>
</g>
<g id="Layer_1_00000139990037737260032390000000790498218782654116_">
	<rect x="480" y="120" class="st4" width="96" height="128"/>
	<g>
		<path class="st7" d="M358,184h110"/>
		<polygon class="st3" points="473,184 465,179 465,189 		"/>
	</g>
	<path class="st8" d="M400,268v-12H272.1L400,268z"/>
	<rect x="64" y="136" class="st3" width="96" height="96"/>
	<path class="st4" d="M400,48H248v208h184V80L400,48z"/>
	<text transform="matrix(1 0 0 1 88.11 306.02)" class="st9 st10 st11">Message</text>
	<text transform="matrix(1 0 0 1 506.34 306.02)" class="st9 st10 st11">Payload</text>
	<polygon class="st12" points="405.9,81 431,84.4 431,81 	"/>
	<g>
		<text transform="matrix(1 0 0 1 271.98 102.22)" class="st3 st5 st11">“type”</text>
		<text transform="matrix(1 0 0 1 317.34 102.22)" class="st13 st5 st11">: “</text>
		<text transform="matrix(1 0 0 1 340.02 102.22)" class="st9 st5 st11">record</text>
		<text transform="matrix(1 0 0 1 385.38 102.22)" class="st13 st5 st11">”</text>
		<text transform="matrix(1 0 0 1 271.98 122.22)" class="st3 st5 st11">“name”</text>
		<text transform="matrix(1 0 0 1 317.34 122.22)" class="st13 st5 st11">: “msg_es”</text>
		<text transform="matrix(1 0 0 1 271.98 142.22)" class="st3 st5 st11">“fields”</text>
		<text transform="matrix(1 0 0 1 332.46 142.22)" class="st13 st5 st11">:</text>
		<text transform="matrix(1 0 0 1 258.78 79.88)" class="st9 st5 st14">{</text>
		<text transform="matrix(1 0 0 1 259.91 240.59)" class="st9 st5 st14">{</text>
		<polygon class="st15" points="432,256 248,256 248,48 400,48 400,80 432,80 		"/>
	</g>
	<g>
		<path class="st3" d="M290.5,156.6h100.7c0.6,0,1,0.4,1,1v16.7c0,0.6-0.4,1-1,1H290.5c-0.6,0-1-0.4-1-1v-16.7
			C289.5,157.1,289.9,156.6,290.5,156.6z"/>
		<path class="st16" d="M391.1,157.6v16.7H290.5v-16.7H391.1 M391.1,155.6H290.5c-1.1,0-2,0.9-2,2v16.7c0,1.1,0.9,2,2,2h100.7
			c1.1,0,2-0.9,2-2v-16.7C393.1,156.5,392.2,155.6,391.1,155.6z"/>
	</g>
	<text transform="matrix(1 0 0 1 292.88 171.66)" class="st4 st5 st6">1001001011</text>
	<g>
		<path class="st3" d="M289.8,178.6h63.1c0.6,0,1,0.4,1,1v16.7c0,0.6-0.4,1-1,1h-63.1c-0.6,0-1-0.4-1-1v-16.7
			C288.8,179.1,289.2,178.6,289.8,178.6z"/>
		<path class="st16" d="M352.9,179.6v16.7h-63.1v-16.7H352.9 M352.9,177.6h-63.1c-1.1,0-2,0.9-2,2v16.7c0,1.1,0.9,2,2,2h63.1
			c1.1,0,2-0.9,2-2v-16.7C354.9,178.5,354,177.6,352.9,177.6z"/>
	</g>
	<g>
		<path class="st3" d="M290.1,200.6h80.5c0.6,0,1,0.4,1,1v16.7c0,0.6-0.4,1-1,1h-80.5c-0.6,0-1-0.4-1-1v-16.7
			C289.1,201.1,289.5,200.6,290.1,200.6z"/>
		<path class="st16" d="M370.5,201.6v16.7H290v-16.7H370.5 M370.6,199.6h-80.5c-1.1,0-2,0.9-2,2v16.7c0,1.1,0.9,2,2,2h80.5
			c1.1,0,2-0.9,2-2v-16.7C372.6,200.5,371.7,199.6,370.6,199.6z"/>
	</g>
	<text transform="matrix(1 0 0 1 292.88 193.78)" class="st4 st5 st6">010110</text>
	<text transform="matrix(1 0 0 1 292.88 215.66)" class="st4 st5 st6">11011100</text>
	<polyline class="st8" points="290.5,157.6 391.1,164.2 391.1,157.6 	"/>
	<polyline class="st8" points="289.8,179.6 352.9,185.4 352.9,179.6 	"/>
	<polyline class="st8" points="290.1,201.6 370.5,210 370.5,201.6 	"/>
	<path class="st7" d="M103,184h110"/>
	<polygon class="st3" points="218,184 210,179 210,189 	"/>
	<text transform="matrix(1 0 0 1 487.98 139.22)" class="st3 st17 st11">Name</text>
	<g>
		<rect x="488" y="144" class="st0" width="80" height="16"/>
		<text transform="matrix(1 0 0 1 492.22 156.18)" class="st9 st5 st18">1001001011</text>
	</g>
	<text transform="matrix(1 0 0 1 487.98 178.22)" class="st3 st17 st11">Ref</text>
	<g>
		<rect x="488" y="184" class="st0" width="56" height="16"/>
		<text transform="matrix(1 0 0 1 492.22 196.18)" class="st9 st5 st18">010110</text>
	</g>
	<text transform="matrix(1 0 0 1 487.98 219.22)" class="st3 st17 st11">Date</text>
	<g>
		<rect x="488" y="224" class="st0" width="72" height="16"/>
		<text transform="matrix(1 0 0 1 492.22 236.18)" class="st9 st5 st18">11011100</text>
	</g>
	<text transform="matrix(1 0 0 1 272.66 305.75)" class="st9 st17 st11">AVRO schema</text>
	<g>
		<path class="st19" d="M977.7,110c-0.8,0-1.5-0.7-1.5-1.5s0.7-1.5,1.5-1.5s1.5,0.7,1.5,1.5l0,0C979.2,109.3,978.5,110,977.7,110z
			 M971.7,110h-3v-3h3V110z M964.2,108.5c0,0.8-0.7,1.5-1.5,1.5s-1.5-0.7-1.5-1.5s0.7-1.5,1.5-1.5S964.2,107.7,964.2,108.5
			L964.2,108.5z M962.7,92h15v4.5h-15V92z M978.4,105.6v-3.1c0-0.8-0.7-1.5-1.5-1.5h-6v-3h6.8c0.8,0,1.5-0.7,1.5-1.5V92
			c0-0.8-0.7-1.5-1.5-1.5h-15c-0.8,0-1.5,0.7-1.5,1.5v4.5c0,0.8,0.7,1.5,1.5,1.5h6.8v3h-6c-0.8,0-1.5,0.7-1.5,1.5v3.1
			c-1.6,0.4-2.6,2.1-2.2,3.7c0.4,1.6,2.1,2.6,3.7,2.2c1.6-0.4,2.6-2.1,2.2-3.7c-0.3-1.1-1.1-1.9-2.2-2.2v-3.1h6v3h-2.2v6h6v-6h-2.2
			v-3h6v3.1c-1.6,0.4-2.6,2.1-2.2,3.7c0.4,1.6,2.1,2.6,3.7,2.2c1.6-0.4,2.6-2.1,2.2-3.7C980.3,106.7,979.5,105.9,978.4,105.6z
			 M964.9,95c0.4,0,0.8-0.3,0.8-0.8s-0.3-0.8-0.8-0.8s-0.8,0.3-0.8,0.8C964.2,94.7,964.5,95,964.9,95z"/>
		<g>
			<g>
				<defs>
					<path id="SVGID_1_" d="M977.7,110c-0.8,0-1.5-0.7-1.5-1.5s0.7-1.5,1.5-1.5s1.5,0.7,1.5,1.5l0,0
						C979.2,109.3,978.5,110,977.7,110z M971.7,110h-3v-3h3V110z M964.2,108.5c0,0.8-0.7,1.5-1.5,1.5s-1.5-0.7-1.5-1.5
						s0.7-1.5,1.5-1.5S964.2,107.7,964.2,108.5L964.2,108.5z M962.7,92h15v4.5h-15V92z M978.4,105.6v-3.1c0-0.8-0.7-1.5-1.5-1.5h-6
						v-3h6.8c0.8,0,1.5-0.7,1.5-1.5V92c0-0.8-0.7-1.5-1.5-1.5h-15c-0.8,0-1.5,0.7-1.5,1.5v4.5c0,0.8,0.7,1.5,1.5,1.5h6.8v3h-6
						c-0.8,0-1.5,0.7-1.5,1.5v3.1c-1.6,0.4-2.6,2.1-2.2,3.7c0.4,1.6,2.1,2.6,3.7,2.2c1.6-0.4,2.6-2.1,2.2-3.7
						c-0.3-1.1-1.1-1.9-2.2-2.2v-3.1h6v3h-2.2v6h6v-6h-2.2v-3h6v3.1c-1.6,0.4-2.6,2.1-2.2,3.7c0.4,1.6,2.1,2.6,3.7,2.2
						c1.6-0.4,2.6-2.1,2.2-3.7C980.3,106.7,979.5,105.9,978.4,105.6z M964.9,95c0.4,0,0.8-0.3,0.8-0.8s-0.3-0.8-0.8-0.8
						s-0.8,0.3-0.8,0.8C964.2,94.7,964.5,95,964.9,95z"/>
				</defs>
				<clipPath id="SVGID_00000014615530778919200600000016328201671816345488_">
					<use xlink:href="#SVGID_1_"  style="overflow:visible;"/>
				</clipPath>
				<g style="clip-path:url(#SVGID_00000014615530778919200600000016328201671816345488_);">
					<rect x="-179.8" y="-608" class="st9" width="1440" height="1027"/>
				</g>
			</g>
		</g>
	</g>
</g>
</svg>
