<?xml version="1.0" encoding="utf-8"?>
<!-- Generator: Adobe Illustrator 26.4.1, SVG Export Plug-In . SVG Version: 6.00 Build 0)  -->
<svg version="1.1" id="Layer_1" xmlns="http://www.w3.org/2000/svg" xmlns:xlink="http://www.w3.org/1999/xlink" x="0px" y="0px"
	 viewBox="0 0 640 352" style="enable-background:new 0 0 640 352;" xml:space="preserve">
<style type="text/css">
	.st0{fill:#E7E9F7;}
	.st1{fill-rule:evenodd;clip-rule:evenodd;fill:#1D364D;}
	.st2{clip-path:url(#SVGID_00000099631876204074320070000010436358818342166166_);}
	.st3{fill:#1D364D;}
	.st4{fill:none;stroke:#B0BEF3;stroke-width:0.56;stroke-miterlimit:10;}
	.st5{fill:#D1D7F4;}
	.st6{fill:#3C6DF0;}
	.st7{fill:#FFFFFF;}
	.st8{font-family:'IBMPlexMono';}
	.st9{font-size:15px;}
	.st10{fill:none;stroke:#3C6DF0;stroke-width:2;stroke-linecap:round;stroke-linejoin:round;}
	.st11{opacity:0.5;fill:#2F56BD;enable-background:new    ;}
	.st12{fill:none;stroke:#F2F4F8;stroke-width:2;stroke-linecap:round;stroke-linejoin:round;}
	.st13{font-family:'IBMPlexSans';}
	.st14{font-size:12px;}
	.st15{fill:#E2E4E8;}
	.st16{fill:#F2F4F8;}
	.st17{font-family:'IBMPlexSans-SemiBold';}
	.st18{font-size:11px;}
</style>
<g id="Layer_3">
	<rect class="st0" width="640" height="352"/>
</g>
<g id="Layer_1_00000145766068434431277340000000494547963549954235_">
	<g>
		<path class="st1" d="M977.7,110c-0.8,0-1.5-0.7-1.5-1.5s0.7-1.5,1.5-1.5s1.5,0.7,1.5,1.5l0,0C979.2,109.3,978.5,110,977.7,110z
			 M971.7,110h-3v-3h3V110z M964.2,108.5c0,0.8-0.7,1.5-1.5,1.5s-1.5-0.7-1.5-1.5s0.7-1.5,1.5-1.5S964.2,107.7,964.2,108.5
			L964.2,108.5z M962.7,92h15v4.5h-15V92z M978.4,105.6v-3.1c0-0.8-0.7-1.5-1.5-1.5h-6v-3h6.8c0.8,0,1.5-0.7,1.5-1.5V92
			c0-0.8-0.7-1.5-1.5-1.5h-15c-0.8,0-1.5,0.7-1.5,1.5v4.5c0,0.8,0.7,1.5,1.5,1.5h6.8v3h-6c-0.8,0-1.5,0.7-1.5,1.5v3.1
			c-1.6,0.4-2.6,2.1-2.2,3.7c0.4,1.6,2.1,2.6,3.7,2.2c1.6-0.4,2.6-2.1,2.2-3.7c-0.3-1.1-1.1-1.9-2.2-2.2v-3.1h6v3h-2.2v6h6v-6h-2.2
			v-3h6v3.1c-1.6,0.4-2.6,2.1-2.2,3.7c0.4,1.6,2.1,2.6,3.7,2.2c1.6-0.4,2.6-2.1,2.2-3.7C980.3,106.7,979.5,105.9,978.4,105.6z
			 M964.9,95c0.4,0,0.8-0.3,0.8-0.8s-0.3-0.8-0.8-0.8s-0.8,0.3-0.8,0.8C964.2,94.7,964.5,95,964.9,95z"/>
		<g>
			<defs>
				<path id="SVGID_1_" d="M977.7,110c-0.8,0-1.5-0.7-1.5-1.5s0.7-1.5,1.5-1.5s1.5,0.7,1.5,1.5l0,0C979.2,109.3,978.5,110,977.7,110
					z M971.7,110h-3v-3h3V110z M964.2,108.5c0,0.8-0.7,1.5-1.5,1.5s-1.5-0.7-1.5-1.5s0.7-1.5,1.5-1.5S964.2,107.7,964.2,108.5
					L964.2,108.5z M962.7,92h15v4.5h-15V92z M978.4,105.6v-3.1c0-0.8-0.7-1.5-1.5-1.5h-6v-3h6.8c0.8,0,1.5-0.7,1.5-1.5V92
					c0-0.8-0.7-1.5-1.5-1.5h-15c-0.8,0-1.5,0.7-1.5,1.5v4.5c0,0.8,0.7,1.5,1.5,1.5h6.8v3h-6c-0.8,0-1.5,0.7-1.5,1.5v3.1
					c-1.6,0.4-2.6,2.1-2.2,3.7c0.4,1.6,2.1,2.6,3.7,2.2c1.6-0.4,2.6-2.1,2.2-3.7c-0.3-1.1-1.1-1.9-2.2-2.2v-3.1h6v3h-2.2v6h6v-6
					h-2.2v-3h6v3.1c-1.6,0.4-2.6,2.1-2.2,3.7c0.4,1.6,2.1,2.6,3.7,2.2c1.6-0.4,2.6-2.1,2.2-3.7C980.3,106.7,979.5,105.9,978.4,105.6
					z M964.9,95c0.4,0,0.8-0.3,0.8-0.8s-0.3-0.8-0.8-0.8s-0.8,0.3-0.8,0.8C964.2,94.7,964.5,95,964.9,95z"/>
			</defs>
			<clipPath id="SVGID_00000083803311728672854920000017341516942678296982_">
				<use xlink:href="#SVGID_1_"  style="overflow:visible;"/>
			</clipPath>
			<g style="clip-path:url(#SVGID_00000083803311728672854920000017341516942678296982_);">
				<rect x="-179.8" y="-608" class="st3" width="1440" height="1027"/>
			</g>
		</g>
	</g>
	<g>
		<ellipse class="st4" cx="377.8" cy="80.7" rx="2.1" ry="2"/>
		<ellipse class="st4" cx="404.3" cy="39.8" rx="2.1" ry="2"/>
		<ellipse class="st4" cx="451.1" cy="27.5" rx="2.1" ry="2"/>
		<ellipse class="st4" cx="466.9" cy="53.1" rx="2.1" ry="2"/>
		<ellipse class="st4" cx="492.9" cy="48.1" rx="2.1" ry="2"/>
		<path class="st5" d="M383.6,52.5h-1.3c-0.6,0-1-0.4-1-1v-1.3c0-0.6-0.4-1-1-1c0,0,0,0-0.1,0l0,0c-0.6,0-1,0.4-1,0.9c0,0,0,0,0,0.1
			v1.3c0,0.6-0.4,1-1,1c0,0,0,0-0.1,0h-1.3c-0.6,0-1,0.4-1,1l0,0c0,0.6,0.4,1,1,1h1.3c0.6,0,1,0.4,1,0.9c0,0,0,0,0,0.1v1.3
			c0,0.6,0.4,1,1,1c0,0,0,0,0.1,0l0,0c0.6,0,1-0.4,1-0.9c0,0,0,0,0-0.1v-1.3c0-0.6,0.4-1,1-1h1.3c0.6,0,1-0.4,1-0.9c0,0,0,0,0-0.1
			l0,0C384.7,53,384.2,52.5,383.6,52.5C383.6,52.5,383.6,52.5,383.6,52.5z"/>
		<path class="st5" d="M429.3,46.8H428c-0.6,0-1-0.4-1-0.9c0,0,0,0,0-0.1v-1.3c0-0.6-0.4-1-1-1c0,0,0,0-0.1,0l0,0c-0.6,0-1,0.4-1,1
			v1.3c0,0.6-0.4,1-1,1h-1.3c-0.6,0-1,0.4-1,0.9c0,0,0,0,0,0.1l0,0c0,0.6,0.4,1,1,1c0,0,0,0,0.1,0h1.3c0.6,0,1,0.4,1,1v1.3
			c0,0.6,0.4,1,1,1l0,0c0.6,0,1-0.4,1-0.9c0,0,0,0,0-0.1v-1.2c0-0.6,0.4-1,1-1c0,0,0,0,0.1,0h1.3c0.6,0,1-0.4,1-1l0,0
			C430.3,47.3,429.9,46.8,429.3,46.8C429.3,46.8,429.3,46.8,429.3,46.8z"/>
		<path class="st5" d="M474.3,32.8H473c-0.6,0-1-0.4-1-0.9c0,0,0,0,0-0.1v-1.3c0-0.6-0.4-1-1-1c0,0,0,0-0.1,0l0,0c-0.6,0-1,0.4-1,1
			v1.3c0,0.6-0.4,1-1,1h-1.3c-0.6,0-1,0.4-1,0.9c0,0,0,0,0,0.1l0,0c0,0.6,0.4,1,1,1c0,0,0,0,0.1,0h1.3c0.6,0,1,0.4,1,1v1.3
			c0,0.6,0.4,1,1,1l0,0c0.6,0,1-0.4,1-0.9c0,0,0,0,0-0.1v-1.2c0-0.6,0.4-1,1-1c0,0,0,0,0.1,0h1.3c0.6,0,1-0.4,1-1l0,0
			C475.3,33.3,474.9,32.8,474.3,32.8C474.3,32.8,474.3,32.8,474.3,32.8z"/>
		<path class="st5" d="M500.3,78.2H499c-0.6,0-1-0.4-1-0.9c0,0,0,0,0-0.1v-1.3c0-0.6-0.4-1-1-1l0,0c-0.6,0-1,0.4-1,0.9
			c0,0,0,0,0,0.1v1.3c0,0.6-0.4,1-1,1h-1.3c-0.6,0-1,0.4-1,1l0,0c0,0.6,0.4,1,1,1h1.3c0.6,0,1,0.4,1,1v1.3c0,0.6,0.4,1,1,1
			c0,0,0,0,0.1,0l0,0c0.6,0,1-0.4,1-1v-1.2c0-0.6,0.4-1,1-1c0,0,0,0,0.1,0h1.3c0.6,0,1-0.4,1-1l0,0
			C501.3,78.6,500.9,78.2,500.3,78.2C500.3,78.1,500.3,78.1,500.3,78.2z"/>
		<g>
			<rect x="136" y="96" class="st6" width="176" height="176"/>
			<text transform="matrix(1 0 0 1 145.04 126.92)" class="st7 st8 st9">101101101001000</text>
			<text transform="matrix(1 0 0 1 145.04 149.51)" class="st7 st8 st9">000101011101100</text>
			<text transform="matrix(1 0 0 1 145.04 172.1)" class="st7 st8 st9">001011101000110</text>
			<text transform="matrix(1 0 0 1 145.04 194.69)" class="st7 st8 st9">010101110010011</text>
			<text transform="matrix(1 0 0 1 145.04 217.28)" class="st7 st8 st9">101000110111101</text>
			<text transform="matrix(1 0 0 1 145.04 239.87)" class="st7 st8 st9">10111000100001</text>
			<g>
				<path class="st10" d="M270,179h110"/>
				<polygon class="st6" points="385,179 377,174 377,184 				"/>
			</g>
			<path class="st11" d="M312,268v-12H184.1L312,268z"/>
			<path class="st7" d="M312,48H160v208h184V80L312,48z"/>
			<polygon class="st12" points="344,256 160,256 160,48 312,48 312,80 344,80 			"/>
			<text transform="matrix(1 0 0 1 418.34 306.02)" class="st3 st13 st14">Payload</text>
			<polygon class="st15" points="317.9,81 343,84.4 343,81 			"/>
			<g>
				<g>
					<path class="st6" d="M202.5,156.8h100.7c0.6,0,1,0.4,1,1v16.7c0,0.6-0.4,1-1,1H202.5c-0.6,0-1-0.4-1-1v-16.7
						C201.5,157.3,201.9,156.8,202.5,156.8z"/>
					<path class="st16" d="M303.1,157.8v16.7H202.5v-16.7H303.1 M303.1,155.8H202.5c-1.1,0-2,0.9-2,2v16.7c0,1.1,0.9,2,2,2h100.7
						c1.1,0,2-0.9,2-2v-16.7C305.1,156.7,304.2,155.8,303.1,155.8z"/>
				</g>
				<text transform="matrix(1 0 0 1 204.88 171.86)" class="st7 st8 st9">1000111010</text>
				<polyline class="st11" points="202.5,157.8 303.1,164.4 303.1,157.8 				"/>
			</g>
			<g>
				<g>
					<path class="st6" d="M181.8,179.4h63.1c0.6,0,1,0.4,1,1v16.7c0,0.6-0.4,1-1,1h-63.1c-0.6,0-1-0.4-1-1v-16.7
						C180.8,179.9,181.2,179.4,181.8,179.4z"/>
					<path class="st16" d="M244.9,180.4v16.7h-63.1v-16.7H244.9 M244.9,178.4h-63.1c-1.1,0-2,0.9-2,2v16.7c0,1.1,0.9,2,2,2h63.1
						c1.1,0,2-0.9,2-2v-16.7C246.9,179.3,246,178.4,244.9,178.4z"/>
				</g>
				<text transform="matrix(1 0 0 1 184.88 194.58)" class="st7 st8 st9">011110</text>
				<polyline class="st11" points="181.8,180.4 244.9,186.2 244.9,180.4 				"/>
			</g>
			<g>
				<g>
					<path class="st6" d="M202.1,202h80.5c0.6,0,1,0.4,1,1v16.7c0,0.6-0.4,1-1,1h-80.5c-0.6,0-1-0.4-1-1V203
						C201.1,202.5,201.5,202,202.1,202z"/>
					<path class="st16" d="M282.5,203v16.7h-80.5V203H282.5 M282.6,201h-80.5c-1.1,0-2,0.9-2,2v16.7c0,1.1,0.9,2,2,2h80.5
						c1.1,0,2-0.9,2-2V203C284.6,201.9,283.7,201,282.6,201z"/>
				</g>
				<text transform="matrix(1 0 0 1 204.88 217.06)" class="st7 st8 st9">11011100</text>
				<polyline class="st11" points="202.1,203 282.5,211.4 282.5,203 				"/>
			</g>
			<g>
				<g>
					<path class="st6" d="M171.1,224.6h80.5c0.6,0,1,0.4,1,1v16.7c0,0.6-0.4,1-1,1h-80.5c-0.6,0-1-0.4-1-1v-16.7
						C170.1,225.1,170.5,224.6,171.1,224.6z"/>
					<path class="st16" d="M251.6,225.6v16.7h-80.5v-16.7H251.6 M251.6,223.6h-80.5c-1.1,0-2,0.9-2,2v16.7c0,1.1,0.9,2,2,2h80.5
						c1.1,0,2-0.9,2-2v-16.7C253.6,224.5,252.7,223.6,251.6,223.6z"/>
				</g>
				<text transform="matrix(1 0 0 1 173.88 239.66)" class="st7 st8 st9">01001110</text>
				<polyline class="st11" points="171.1,225.6 251.6,234 251.6,225.6 				"/>
			</g>
			<g>
				<g>
					<path class="st6" d="M170.1,134.2h80.5c0.6,0,1,0.4,1,1V152c0,0.6-0.4,1-1,1h-80.5c-0.6,0-1-0.4-1-1v-16.7
						C169.1,134.7,169.5,134.2,170.1,134.2z"/>
					<path class="st16" d="M250.6,135.2V152h-80.5v-16.8H250.6 M250.6,133.2h-80.5c-1.1,0-2,0.9-2,2V152c0,1.1,0.9,2,2,2h80.5
						c1.1,0,2-0.9,2-2v-16.8C252.6,134.1,251.7,133.2,250.6,133.2z"/>
				</g>
				<text transform="matrix(1 0 0 1 172.88 149.26)" class="st7 st8 st9">00100100</text>
				<polyline class="st11" points="170.1,135.2 250.6,143.6 250.6,135.2 				"/>
			</g>
			<g>
				<g>
					<path class="st6" d="M170.1,111.6h80.5c0.6,0,1,0.4,1,1v16.7c0,0.6-0.4,1-1,1h-80.5c-0.6,0-1-0.4-1-1v-16.7
						C169.1,112.1,169.5,111.6,170.1,111.6z"/>
					<path class="st16" d="M250.6,112.6v16.7h-80.5v-16.7H250.6 M250.6,110.6h-80.5c-1.1,0-2,0.9-2,2v16.7c0,1.1,0.9,2,2,2h80.5
						c1.1,0,2-0.9,2-2v-16.7C252.6,111.5,251.7,110.6,250.6,110.6z"/>
				</g>
				<text transform="matrix(1 0 0 1 172.88 126.66)" class="st7 st8 st9">01001101</text>
				<polyline class="st11" points="170.1,112.6 250.6,121 250.6,112.6 				"/>
			</g>
			<g>
				<path class="st16" d="M335.5,112.6v16.7h-80.5v-16.7H335.5 M335.6,110.6h-80.5c-1.1,0-2,0.9-2,2v16.7c0,1.1,0.9,2,2,2h80.5
					c1.1,0,2-0.9,2-2v-16.7C337.6,111.5,336.7,110.6,335.6,110.6z"/>
				<rect x="255.1" y="112.6" class="st6" width="57.4" height="16.7"/>
				<polyline class="st11" points="255.1,112.6 255,122 312,127 312,112.6 				"/>
			</g>
			<g>
				<rect x="392" y="66" class="st7" width="96" height="206"/>
				<g>
					<text transform="matrix(1 0 0 1 399.98 85.22)" class="st6 st17 st14">Room</text>
					<g>
						<rect x="400" y="90" class="st0" width="65" height="16"/>
						<text transform="matrix(1 0 0 1 404.22 102.18)" class="st3 st8 st18">01001101</text>
					</g>
				</g>
				<g>
					<text transform="matrix(1 0 0 1 399.98 123.97)" class="st6 st17 st14">Ref</text>
					<g>
						<rect x="400" y="129.8" class="st0" width="65" height="16"/>
						<text transform="matrix(1 0 0 1 404.22 141.93)" class="st3 st8 st18">00100100</text>
					</g>
				</g>
				<g>
					<text transform="matrix(1 0 0 1 399.98 163.72)" class="st6 st17 st14">Date</text>
					<g>
						<rect x="400" y="168.5" class="st0" width="80" height="16"/>
						<text transform="matrix(1 0 0 1 404.22 180.68)" class="st3 st8 st18">1000111010</text>
					</g>
				</g>
				<g>
					<text transform="matrix(1 0 0 1 399.98 202.47)" class="st6 st17 st14">Time</text>
					<g>
						<rect x="400" y="207.2" class="st0" width="51" height="16"/>
						<text transform="matrix(1 0 0 1 404.22 219.43)" class="st3 st8 st18">011110</text>
					</g>
				</g>
				<g>
					<text transform="matrix(1 0 0 1 399.98 241.22)" class="st6 st17 st14">Event</text>
					<g>
						<rect x="400" y="246" class="st0" width="64" height="16"/>
						<text transform="matrix(1 0 0 1 404.22 258.18)" class="st3 st8 st18">01001110</text>
					</g>
				</g>
			</g>
			<text transform="matrix(1 0 0 1 201.52 305.75)" class="st3 st17 st14">Schema</text>
			<rect x="312" y="112.6" class="st0" width="24" height="16.7"/>
			<g>
				<path class="st16" d="M336,203v16.7h-47.9V203H336 M336,201h-47.9c-1.1,0-2,0.9-2,2v16.7c0,1.1,0.9,2,2,2H336c1.1,0,2-0.9,2-2
					V203C338,201.9,337.1,201,336,201z"/>
				<rect x="288.1" y="203" class="st6" width="23.9" height="16.7"/>
				<polyline class="st11" points="288.1,203 288,212 312,215 312,203 				"/>
			</g>
			<rect x="312" y="203" class="st0" width="24" height="16.7"/>
		</g>
	</g>
</g>
</svg>
